<?xml version="1.0" encoding="UTF-8" standalone="no"?>

<svg
   xmlns:dc="http://purl.org/dc/elements/1.1/"
   xmlns:cc="http://creativecommons.org/ns#"
   xmlns:rdf="http://www.w3.org/1999/02/22-rdf-syntax-ns#"
   xmlns:svg="http://www.w3.org/2000/svg"
   xmlns="http://www.w3.org/2000/svg"
   xmlns:sodipodi="http://sodipodi.sourceforge.net/DTD/sodipodi-0.dtd"
   xmlns:inkscape="http://www.inkscape.org/namespaces/inkscape"
   width="2240"
   height="1760"
   viewBox="0 0 2240.0001 1760"
   id="svg14180"
   version="1.1"
   inkscape:version="0.91 r13725"
   sodipodi:docname="barcode.svg">
  <defs
     id="defs14182" />
  <sodipodi:namedview
     id="base"
     pagecolor="#ffffff"
     bordercolor="#666666"
     borderopacity="1.0"
     inkscape:pageopacity="0.0"
     inkscape:pageshadow="2"
     inkscape:zoom="0.175"
     inkscape:cx="-720.82021"
     inkscape:cy="450.46556"
     inkscape:document-units="px"
     inkscape:current-layer="layer1"
     showgrid="false"
     fit-margin-top="0"
     fit-margin-left="0"
     fit-margin-right="0"
     fit-margin-bottom="0"
     inkscape:window-width="1920"
     inkscape:window-height="1029"
     inkscape:window-x="0"
     inkscape:window-y="25"
     inkscape:window-maximized="1"
     units="px" />
  <metadata
     id="metadata14185">
    <rdf:RDF>
      <cc:Work
         rdf:about="">
        <dc:format>image/svg+xml</dc:format>
        <dc:type
           rdf:resource="http://purl.org/dc/dcmitype/StillImage" />
        <dc:title></dc:title>
      </cc:Work>
    </rdf:RDF>
  </metadata>
  <g
     inkscape:label="Layer 1"
     inkscape:groupmode="layer"
     id="layer1"
     transform="translate(298.51777,1050.5018)"
     style="opacity:0.95">
    <g
       id="g1478"
       transform="matrix(1.25,0,0,-1.25,-298.51777,709.49819)">
      <path
         d="M 63,0 0,0 0,1408 63,1408 63,0 Z m 63,1 -32,0 0,1407 32,0 0,-1407 z m 94,0 -31,0 0,1407 31,0 0,-1407 z m 157,0 -31,0 0,1407 31,0 0,-1407 z m 157,0 -62,0 0,1407 62,0 0,-1407 z m 126,0 -31,0 0,1407 31,0 0,-1407 z m 63,0 -31,0 0,1407 31,0 0,-1407 z m 63,0 -31,0 0,1407 31,0 0,-1407 z m 157,0 -63,0 0,1407 63,0 0,-1407 z m 157,0 -63,0 0,1407 63,0 0,-1407 z m 126,0 -63,0 0,1407 63,0 0,-1407 z m 126,0 -63,0 0,1407 63,0 0,-1407 z m 94,0 -63,0 0,1407 63,0 0,-1407 z m 189,0 -94,0 0,1407 94,0 0,-1407 z m 63,0 -32,0 0,1407 32,0 0,-1407 z m 94,-1 -63,0 0,1408 63,0 0,-1408 z"
         style="fill:#000000;fill-opacity:1;fill-rule:nonzero;stroke:none"
         id="path1480"
         class="fill-current"
         inkscape:connector-curvature="0" />
    </g>
  </g>
</svg>
