<?xml version="1.0" encoding="UTF-8" standalone="no"?>
<!-- Created with Inkscape (http://www.inkscape.org/) -->

<svg
   xmlns:dc="http://purl.org/dc/elements/1.1/"
   xmlns:cc="http://creativecommons.org/ns#"
   xmlns:rdf="http://www.w3.org/1999/02/22-rdf-syntax-ns#"
   xmlns:svg="http://www.w3.org/2000/svg"
   xmlns="http://www.w3.org/2000/svg"
   xmlns:sodipodi="http://sodipodi.sourceforge.net/DTD/sodipodi-0.dtd"
   xmlns:inkscape="http://www.inkscape.org/namespaces/inkscape"
   width="9.4766693mm"
   height="9.4766693mm"
   viewBox="0 0 33.57875 33.578749"
   id="svg14180"
   version="1.1"
   inkscape:version="0.91 r13725"
   sodipodi:docname="facebook.svg">
  <defs
     id="defs14182" />
  <sodipodi:namedview
     id="base"
     pagecolor="#ffffff"
     bordercolor="#666666"
     borderopacity="1.0"
     inkscape:pageopacity="0.0"
     inkscape:pageshadow="2"
     inkscape:zoom="5.6"
     inkscape:cx="33.283463"
     inkscape:cy="26.914106"
     inkscape:document-units="px"
     inkscape:current-layer="layer1"
     showgrid="false"
     fit-margin-top="0"
     fit-margin-left="0"
     fit-margin-right="0"
     fit-margin-bottom="0"
     inkscape:window-width="1920"
     inkscape:window-height="1031"
     inkscape:window-x="0"
     inkscape:window-y="25"
     inkscape:window-maximized="1" />
  <metadata
     id="metadata14185">
    <rdf:RDF>
      <cc:Work
         rdf:about="">
        <dc:format>image/svg+xml</dc:format>
        <dc:type
           rdf:resource="http://purl.org/dc/dcmitype/StillImage" />
        <dc:title></dc:title>
      </cc:Work>
    </rdf:RDF>
  </metadata>
  <g
     inkscape:label="Layer 1"
     inkscape:groupmode="layer"
     id="layer1"
     transform="translate(319.64652,-692.71569)">
    <g
       id="g1478"
       transform="matrix(1.25,0,0,-1.25,-298.51777,709.49819)">
      <path
         d="m 0,0 -2.206,0 0,-8.058 -3.017,0 0,8.058 -2.017,0 0,2.77 2.017,0.008 -0.009,1.631 c 0,2.262 0.615,3.647 3.289,3.647 l 2.222,0 0,-2.778 -1.395,0 c -1.033,0 -1.09,-0.393 -1.09,-1.115 l 0,-1.385 2.5,0 L 0,0 Z m -3.477,13.426 c -7.41,0 -13.426,-6.016 -13.426,-13.426 0,-7.42 6.016,-13.437 13.426,-13.437 7.42,0 13.437,6.017 13.437,13.437 0,7.418 -6.017,13.426 -13.437,13.426"
         style="fill:#333333;fill-opacity:1;fill-rule:nonzero;stroke:none"
         id="path1480"
         class="fill-current"
         inkscape:connector-curvature="0" />
    </g>
  </g>
</svg>
