<?xml version="1.0" encoding="UTF-8" standalone="no"?>
<!-- Created with Inkscape (http://www.inkscape.org/) -->

<svg
   xmlns:dc="http://purl.org/dc/elements/1.1/"
   xmlns:cc="http://creativecommons.org/ns#"
   xmlns:rdf="http://www.w3.org/1999/02/22-rdf-syntax-ns#"
   xmlns:svg="http://www.w3.org/2000/svg"
   xmlns="http://www.w3.org/2000/svg"
   xmlns:sodipodi="http://sodipodi.sourceforge.net/DTD/sodipodi-0.dtd"
   xmlns:inkscape="http://www.inkscape.org/namespaces/inkscape"
   width="37.394444mm"
   height="40.719021mm"
   viewBox="0 0 132.5 144.27999"
   id="svg14205"
   version="1.1"
   inkscape:version="0.91 r13725"
   sodipodi:docname="logo.svg">
  <defs
     id="defs18" />
  <sodipodi:namedview
     id="base"
     pagecolor="#ffffff"
     bordercolor="#666666"
     borderopacity="1.0"
     inkscape:pageopacity="0.0"
     inkscape:pageshadow="2"
     inkscape:zoom="1.979899"
     inkscape:cx="-110.18526"
     inkscape:cy="128.38049"
     inkscape:document-units="px"
     inkscape:current-layer="layer1"
     showgrid="false"
     fit-margin-top="0"
     fit-margin-left="0"
     fit-margin-right="0"
     fit-margin-bottom="0"
     inkscape:window-width="1920"
     inkscape:window-height="1031"
     inkscape:window-x="0"
     inkscape:window-y="25"
     inkscape:window-maximized="1" />
  <metadata
     id="metadata14210">
    <rdf:RDF>
      <cc:Work
         rdf:about="">
        <dc:format>image/svg+xml</dc:format>
        <dc:type
           rdf:resource="http://purl.org/dc/dcmitype/StillImage" />
        <dc:title />
      </cc:Work>
    </rdf:RDF>
  </metadata>
  <g
     inkscape:label="Layer 1"
     inkscape:groupmode="layer"
     id="layer1"
     transform="translate(426.25,-557.3651)">
    <path
       inkscape:connector-curvature="0"
       id="path794"
       style="fill:#333333;fill-opacity:1;fill-rule:nonzero;stroke:none"
       d="m -386.607,621.5646 c 0,3.88875 -2.01375,4.575 -5.3225,4.575 l -1.82,0 0,-8.75 1.68624,0 c 3.62126,0 5.45626,0.865 5.45626,4.175 m -15.8925,-9.175 0,31.25 8.75,0 0,-11.25 2.44625,0 c 7.1575,0 12.25624,-3.0225 12.25624,-10.2225 0,-6.8 -4.91999,-9.7775 -12.92874,-9.7775 l -10.52375,0 z" />
    <path
       inkscape:connector-curvature="0"
       id="path798"
       style="fill:#333333;fill-opacity:1;fill-rule:nonzero;stroke:none"
       d="m -365.45213,623.3486 c 2.86375,0 4.295,2.19125 4.295,7.4675 0,5.14375 -1.43125,7.425 -4.295,7.425 -2.86,0 -4.2925,-2.19125 -4.2925,-7.46875 0,-5.1425 1.4325,-7.42375 4.2925,-7.42375 m 0,20.08 c 7.24375,0 11.62875,-5.00875 11.62875,-12.6125 0,-8.00625 -4.385,-12.65625 -11.62875,-12.65625 -7.24375,0 -11.6275,5.01 -11.6275,12.6125 0,8.005 4.42875,12.65625 11.6275,12.65625" />
    <path
       inkscape:connector-curvature="0"
       id="path802"
       style="fill:#333333;fill-opacity:1;fill-rule:nonzero;stroke:none"
       d="m -349.99988,609.4836 0,27.14875 c 0,4.33625 2.40125,6.79625 6.5175,6.79625 1.69625,0 3.21,-0.3575 4.285,-0.805 l -1.39125,-5.01 c -0.3125,0.13625 -0.44375,0.22375 -0.9325,0.22375 -0.85,0 -0.97875,-0.49125 -0.97875,-1.475 l 0,-27.64 -7.5,0.76125 z" />
    <path
       inkscape:connector-curvature="0"
       id="path806"
       style="fill:#333333;fill-opacity:1;fill-rule:nonzero;stroke:none"
       d="m -326.24988,636.1386 c 0,1.38625 -1.2575,2.2375 -2.8675,2.2375 -1.7425,0 -2.32875,-0.87 -2.32875,-2.74625 0,-2.37 2.01125,-3.24 5.2325,-3.24 l -0.0362,0 0,3.74875 z m -0.63625,-7.49875 c -7.19875,0 -11.135,2.4975 -11.135,7.6875 0,4.3375 2.9975,7.26125 7.74,7.26125 2.8125,0 5.45375,-1.01875 7.15125,-3.61375 1.12,2.3275 2.95125,3.13625 5.725,3.36125 l 1.49625,-4.6275 c -1.115,-0.40375 -1.59125,-1.095 -1.59125,-2.9275 l 0,-9.21375 c 0,-5.50125 -2.97,-8.4075 -9.85875,-8.4075 -2.68125,0 -5.9575,0.62625 -8.95375,1.74375 l 1.605,4.6525 c 2.37,-0.80375 3.80375,-1.25375 5.3275,-1.25375 2.905,0 3.13,0.85125 3.13,3.6675 l 0,1.67 -0.63625,0 z" />
    <path
       inkscape:connector-curvature="0"
       id="path810"
       style="fill:#333333;fill-opacity:1;fill-rule:nonzero;stroke:none"
       d="m -297.6825,579.8901 -36.0675,0 0,-5.67875 -31.2475,8.37375 31.2475,8.375 0,-3.57 31.25,0 0,78.65875 -30.9375,27.38125 -84.0625,-36.8825 0,-67.80875 89.22625,-24.045 -2.21875,-7.32875 -92.74875,24.80125 c -1.6575,0.44375 -3.00875,1.945 -3.00875,3.66375 l 0,73.2075 c 0,1.5125 0.9675,2.88 2.35625,3.48 l 89.58,38.81625 c 0.48375,0.21 1.015,0.31125 1.525,0.31125 0.89,0 1.775,-0.31125 2.47625,-0.9125 l 35.1625,-30.05875 c 0.84125,-0.72 1.4,-1.77375 1.4,-2.88 l 0,-85.20875 c 0,-2.095 -1.8375,-2.695 -3.9325,-2.695" />
  </g>
</svg>
