<?xml version="1.0" encoding="UTF-8" standalone="no"?>
<svg
   xmlns:dc="http://purl.org/dc/elements/1.1/"
   xmlns:cc="http://creativecommons.org/ns#"
   xmlns:rdf="http://www.w3.org/1999/02/22-rdf-syntax-ns#"
   xmlns:svg="http://www.w3.org/2000/svg"
   xmlns="http://www.w3.org/2000/svg"
   xmlns:sodipodi="http://sodipodi.sourceforge.net/DTD/sodipodi-0.dtd"
   xmlns:inkscape="http://www.inkscape.org/namespaces/inkscape"
   width="2080"
   height="2080"
   viewBox="0 0 2080.0001 2080"
   id="svg14180"
   version="1.1"
   inkscape:version="0.91 r13725"
   sodipodi:docname="barcode.svg">
  <defs
     id="defs14182" />
  <sodipodi:namedview
     id="base"
     pagecolor="#ffffff"
     bordercolor="#666666"
     borderopacity="1.0"
     inkscape:pageopacity="0.0"
     inkscape:pageshadow="2"
     inkscape:zoom="0.12102273"
     inkscape:cx="-998.22378"
     inkscape:cy="2235.9565"
     inkscape:document-units="px"
     inkscape:current-layer="svg14180"
     showgrid="false"
     fit-margin-top="0"
     fit-margin-left="0"
     fit-margin-right="0.2"
     fit-margin-bottom="0"
     inkscape:window-width="1920"
     inkscape:window-height="1029"
     inkscape:window-x="0"
     inkscape:window-y="25"
     inkscape:window-maximized="1"
     units="px" />
  <metadata
     id="metadata14185">
    <rdf:RDF>
      <cc:Work
         rdf:about="">
        <dc:format>image/svg+xml</dc:format>
        <dc:type
           rdf:resource="http://purl.org/dc/dcmitype/StillImage" />
        <dc:title></dc:title>
      </cc:Work>
    </rdf:RDF>
  </metadata>
  <g
     inkscape:label="Layer 1"
     inkscape:groupmode="layer"
     id="layer1">
    <path
       inkscape:connector-curvature="0"
       class="fill-current"
       id="path1480"
       style="fill:#000000;fill-opacity:1;fill-rule:nonzero;stroke:none"
       d="m 1440,879.99999 q 0,-231.25 -164.375,-395.625 -164.375,-164.375 -395.62498,-164.375 -231.25,0 -395.625,164.375 -164.375,164.375 -164.375,395.625 0,231.25001 164.375,395.62501 Q 648.75002,1440 880.00002,1440 1111.25,1440 1275.625,1275.625 1440,1111.25 1440,879.99999 Z M 2080,1920 q 0,65 -47.5,112.5 -47.5,47.5 -112.5,47.5 -67.5,0 -112.5,-47.5 L 1378.75,1605 q -223.75,155 -498.74999,155 -178.75,0 -341.875,-69.375 -163.125,-69.375 -281.25,-187.5 Q 138.75001,1385 69.375015,1221.875 1.5e-5,1058.75 1.5e-5,879.99999 q 0,-178.75 69.375,-341.875 69.374995,-163.125 187.499995,-281.25 118.125,-118.125 281.25,-187.5 Q 701.25001,0 880.00001,0 1058.75,0 1221.875,69.37499 q 163.125,69.375 281.25,187.5 118.125,118.125 187.5,281.25 Q 1760,701.24999 1760,879.99999 1760,1155 1605,1378.75 l 428.75,428.75 Q 2080,1853.75 2080,1920 Z" />
  </g>
</svg>
