<?xml version="1.0" encoding="UTF-8" standalone="no"?>
<!-- Created with Inkscape (http://www.inkscape.org/) -->

<svg
   xmlns:dc="http://purl.org/dc/elements/1.1/"
   xmlns:cc="http://creativecommons.org/ns#"
   xmlns:rdf="http://www.w3.org/1999/02/22-rdf-syntax-ns#"
   xmlns:svg="http://www.w3.org/2000/svg"
   xmlns="http://www.w3.org/2000/svg"
   xmlns:sodipodi="http://sodipodi.sourceforge.net/DTD/sodipodi-0.dtd"
   xmlns:inkscape="http://www.inkscape.org/namespaces/inkscape"
   width="9.4766693mm"
   height="9.4766693mm"
   viewBox="0 0 33.57875 33.578749"
   id="svg9654"
   version="1.1"
   inkscape:version="0.91 r13725"
   sodipodi:docname="mail.svg">
  <defs
     id="defs9656" />
  <sodipodi:namedview
     id="base"
     pagecolor="#ffffff"
     bordercolor="#666666"
     borderopacity="1.0"
     inkscape:pageopacity="0.0"
     inkscape:pageshadow="2"
     inkscape:zoom="11.2"
     inkscape:cx="-11.864627"
     inkscape:cy="15.044522"
     inkscape:document-units="px"
     inkscape:current-layer="layer1"
     showgrid="false"
     fit-margin-top="0"
     fit-margin-left="0"
     fit-margin-right="0"
     fit-margin-bottom="0"
     inkscape:window-width="1920"
     inkscape:window-height="1031"
     inkscape:window-x="0"
     inkscape:window-y="25"
     inkscape:window-maximized="1" />
  <metadata
     id="metadata9659">
    <rdf:RDF>
      <cc:Work
         rdf:about="">
        <dc:format>image/svg+xml</dc:format>
        <dc:type
           rdf:resource="http://purl.org/dc/dcmitype/StillImage" />
        <dc:title></dc:title>
      </cc:Work>
    </rdf:RDF>
  </metadata>
  <g
     inkscape:label="Layer 1"
     inkscape:groupmode="layer"
     id="layer1"
     transform="translate(-120.35348,-307.0014)">
    <g
       id="g1486"
       transform="matrix(1.25,0,0,-1.25,126.96598,329.6564)">
      <path
         d="M 0,0 0,8.737 7.81,3.486 C 7.912,3.423 8.027,3.392 8.142,3.392 c 0.115,0 0.23,0.031 0.332,0.094 l 7.738,5.203 0,-8.689 c 0,-0.415 -0.336,-0.75 -0.75,-0.75 l -14.711,0 C 0.336,-0.75 0,-0.415 0,0 M 15.823,9.993 8.142,4.769 0.393,9.993 c -0.119,0.08 -0.062,0.265 0.081,0.265 l 15.268,0 c 0.142,0 0.199,-0.185 0.081,-0.265 m -7.686,8.131 c -7.41,0 -13.427,-6.016 -13.427,-13.426 0,-7.42 6.017,-13.437 13.427,-13.437 7.42,0 13.436,6.017 13.436,13.437 0,7.418 -6.016,13.426 -13.436,13.426"
         style="fill:#333333;fill-opacity:1;fill-rule:nonzero;stroke:none"
         class="fill-current"
         id="path1488"
         inkscape:connector-curvature="0" />
    </g>
  </g>
</svg>
