<?xml version="1.0" encoding="UTF-8" standalone="no"?>
<!-- Created with Inkscape (http://www.inkscape.org/) -->

<svg
   xmlns:dc="http://purl.org/dc/elements/1.1/"
   xmlns:cc="http://creativecommons.org/ns#"
   xmlns:rdf="http://www.w3.org/1999/02/22-rdf-syntax-ns#"
   xmlns:svg="http://www.w3.org/2000/svg"
   xmlns="http://www.w3.org/2000/svg"
   xmlns:sodipodi="http://sodipodi.sourceforge.net/DTD/sodipodi-0.dtd"
   xmlns:inkscape="http://www.inkscape.org/namespaces/inkscape"
   width="9.4766693mm"
   height="9.4766693mm"
   viewBox="0 0 33.57875 33.578749"
   id="svg9653"
   version="1.1"
   inkscape:version="0.91 r13725"
   sodipodi:docname="twitter.svg">
  <defs
     id="defs9655" />
  <sodipodi:namedview
     id="base"
     pagecolor="#ffffff"
     bordercolor="#666666"
     borderopacity="1.0"
     inkscape:pageopacity="0.0"
     inkscape:pageshadow="2"
     inkscape:zoom="11.2"
     inkscape:cx="-0.13174309"
     inkscape:cy="22.891076"
     inkscape:document-units="px"
     inkscape:current-layer="layer1"
     showgrid="false"
     fit-margin-top="0"
     fit-margin-left="0"
     fit-margin-right="0"
     fit-margin-bottom="0"
     inkscape:window-width="1920"
     inkscape:window-height="1031"
     inkscape:window-x="0"
     inkscape:window-y="25"
     inkscape:window-maximized="1" />
  <metadata
     id="metadata9658">
    <rdf:RDF>
      <cc:Work
         rdf:about="">
        <dc:format>image/svg+xml</dc:format>
        <dc:type
           rdf:resource="http://purl.org/dc/dcmitype/StillImage" />
        <dc:title></dc:title>
      </cc:Work>
    </rdf:RDF>
  </metadata>
  <g
     inkscape:label="Layer 1"
     inkscape:groupmode="layer"
     id="layer1"
     transform="translate(-311.78205,-589.85859)">
    <path
       d="m 336.92705,602.88229 0.01,0.5325 c 0,5.46125 -4.16,11.7625 -11.76375,11.7625 -2.335,0 -4.5075,-0.685 -6.3325,-1.865 0.3175,0.0412 0.6475,0.0625 0.98375,0.0625 1.93875,0 3.71875,-0.66625 5.13375,-1.7725 -1.81375,-0.0325 -3.32875,-1.23125 -3.8625,-2.87 0.255,0.0525 0.5125,0.0738 0.78,0.0738 0.3775,0 0.7475,-0.0525 1.08625,-0.145 -1.88625,-0.38 -3.31125,-2.04875 -3.31125,-4.0475 l 0,-0.0525 c 0.55375,0.31 1.18875,0.49375 1.865,0.51375 -1.10625,-0.73625 -1.83375,-2.00875 -1.83375,-3.4325 0,-0.75875 0.205,-1.475 0.565,-2.08125 2.0275,2.5 5.08,4.14 8.51375,4.315 -0.0725,-0.29875 -0.1025,-0.61625 -0.1025,-0.94375 0,-2.275 1.845,-4.12875 4.13,-4.12875 1.1875,0 2.26375,0.50375 3.02125,1.30125 0.93375,-0.18375 1.8225,-0.5225 2.62375,-0.995 -0.3075,0.96625 -0.96375,1.77375 -1.82375,2.285 0.84,-0.1025 1.64,-0.3275 2.37625,-0.655 -0.5525,0.83125 -1.25875,1.5575 -2.05875,2.1425 m -8.3625,-13.02375 c -9.2625,0 -16.7825,7.52 -16.7825,16.7825 0,9.275 7.52,16.79625 16.7825,16.79625 9.275,0 16.79625,-7.52125 16.79625,-16.79625 0,-9.2725 -7.52125,-16.7825 -16.79625,-16.7825"
       style="fill:#333333;fill-opacity:1;fill-rule:nonzero;stroke:none"
       class="fill-current"
       id="path1484"
       inkscape:connector-curvature="0" />
  </g>
</svg>
