<?xml version="1.0" standalone="no"?>
<!DOCTYPE svg PUBLIC "-//W3C//DTD SVG 20010904//EN"
 "http://www.w3.org/TR/2001/REC-SVG-20010904/DTD/svg10.dtd">
<svg version="1.0" xmlns="http://www.w3.org/2000/svg"
 width="1024.000000pt" height="1024.000000pt" viewBox="0 0 1024.000000 1024.000000"
 preserveAspectRatio="xMidYMid meet">
<metadata>
Created by potrace 1.11, written by Peter Selinger 2001-2013
</metadata>
<g transform="translate(0.000000,1024.000000) scale(0.100000,-0.100000)"
fill="#000000" stroke="none">
<path d="M4120 8491 c-1477 -395 -2698 -725 -2715 -733 -42 -23 -91 -76 -109
-120 -14 -33 -16 -267 -16 -2184 l0 -2146 27 -49 c14 -27 41 -60 58 -73 18
-14 1208 -534 2644 -1155 2566 -1111 2613 -1131 2676 -1131 35 0 77 6 92 13
15 6 498 411 1073 899 852 723 1051 897 1078 940 l32 52 -2 2506 -3 2505 -22
31 c-12 16 -45 43 -75 60 l-53 29 -1072 3 -1073 2 0 151 c0 117 -3 150 -12
146 -7 -2 -411 -111 -898 -241 -487 -131 -886 -239 -887 -240 -1 -1 401 -110
895 -243 l897 -240 3 118 3 119 894 0 895 0 -1 -2282 0 -2283 -899 -787 -900
-788 -2430 1063 -2430 1062 0 1952 0 1952 36 10 c20 5 1178 317 2573 692 1395
375 2537 683 2539 684 2 2 -24 96 -57 209 -34 113 -61 208 -61 211 0 3 -3 5
-7 4 -5 0 -1216 -323 -2693 -718z"/>
<path d="M5907 6227 l-188 -21 3 -845 3 -846 24 -59 c30 -76 88 -138 160 -173
52 -26 65 -28 176 -28 124 0 235 22 235 47 0 6 -17 72 -37 145 l-38 134 -34
-6 c-24 -5 -38 -2 -52 11 -18 17 -19 44 -19 841 l0 823 -22 -1 c-13 -1 -107
-11 -211 -22z"/>
<path d="M2650 5166 l0 -896 255 0 255 0 0 339 0 338 178 6 c210 7 305 27 423
88 94 49 165 121 208 212 38 82 51 148 51 265 0 289 -141 450 -455 519 -55 12
-162 17 -492 20 l-423 5 0 -896z m788 604 c102 -44 148 -130 146 -270 -3 -132
-49 -215 -143 -258 -47 -22 -75 -27 -168 -30 l-113 -5 0 298 0 298 113 -5 c88
-4 123 -10 165 -28z"/>
<path d="M4708 5700 c-223 -27 -395 -144 -487 -331 -66 -135 -76 -187 -76
-394 0 -207 10 -259 77 -395 103 -211 313 -330 584 -330 376 0 624 233 664
624 35 348 -93 641 -330 758 -122 60 -286 86 -432 68z m153 -301 c76 -16 131
-74 161 -171 20 -65 23 -93 23 -248 0 -154 -3 -184 -23 -247 -38 -121 -111
-183 -217 -183 -104 0 -179 62 -216 177 -30 94 -38 326 -15 433 30 143 87 218
178 240 47 11 51 11 109 -1z"/>
<path d="M6892 5700 c-104 -11 -213 -33 -320 -66 -68 -20 -82 -28 -78 -42 61
-190 84 -247 102 -246 10 1 60 14 109 29 68 21 112 28 180 29 157 2 186 -26
193 -185 l4 -96 -123 -6 c-154 -8 -242 -27 -336 -71 -94 -45 -155 -102 -196
-185 -31 -63 -32 -70 -32 -191 0 -115 2 -130 27 -183 76 -162 207 -238 408
-239 161 0 265 40 363 139 l54 55 21 -34 c49 -78 143 -133 249 -144 l59 -6 48
131 c27 73 47 133 45 135 -2 1 -16 10 -31 19 -16 10 -31 32 -37 54 -7 23 -11
170 -11 368 0 362 -7 426 -56 516 -73 134 -230 210 -459 222 -55 3 -137 1
-183 -3z m188 -904 c0 -143 -2 -155 -23 -187 -29 -44 -113 -76 -171 -65 -138
26 -159 261 -31 348 44 30 129 56 188 57 l37 1 0 -154z"/>
</g>
</svg>
