<svg width="19" height="15" viewBox="0 0 19 15" fill="none" xmlns="http://www.w3.org/2000/svg">
<path d="M13.8858 1.87934H13.2437V13.1207H13.8858V1.87934Z" fill="white"/>
<path d="M2.72964 1.87934H2.08754V13.1207H2.72964V1.87934Z" fill="white"/>
<path d="M4.32217 1.87934H3.68007V13.1207H4.32217V1.87934Z" fill="white"/>
<path d="M5.91752 1.87934H5.27542V13.1207H5.91752V1.87934Z" fill="white"/>
<path d="M7.51005 1.87934H6.86795V13.1207H7.51005V1.87934Z" fill="white"/>
<path d="M9.1054 1.87934H8.4633V13.1207H9.1054V1.87934Z" fill="white"/>
<path d="M10.6979 1.87934H10.0558V13.1207H10.6979V1.87934Z" fill="white"/>
<path d="M12.2905 1.87934H11.6484V13.1207H12.2905V1.87934Z" fill="white"/>
<path d="M15.4783 1.87934H14.8362V13.1207H15.4783V1.87934Z" fill="white"/>
<path d="M17.0737 1.87934H16.4316V13.1207H17.0737V1.87934Z" fill="white"/>
<path d="M0.642102 5.71098H0V0H4.65029V0.788559H0.642102V5.71098Z" fill="white"/>
<path d="M4.65029 15H0V9.28902H0.642102V14.2114H4.65029V15Z" fill="white"/>
<path d="M19 15H14.3497V14.2114H18.3579V9.28902H19V15Z" fill="white"/>
<path d="M19 5.71098H18.3579V0.788559H14.3497V0H19V5.71098Z" fill="white"/>
</svg>
