<svg width="16" height="20" viewBox="0 0 16 20" fill="none" xmlns="http://www.w3.org/2000/svg">
<g clip-path="url(#clip0)">
<path d="M14.9333 6.15385C14.6504 6.15385 14.3791 6.26191 14.1791 6.45426C13.979 6.6466 13.8667 6.90748 13.8667 7.1795V9.23078C13.8667 10.7269 13.2486 12.1617 12.1484 13.2196C11.0481 14.2775 9.55594 14.8718 8 14.8718C6.44406 14.8718 4.95185 14.2775 3.85164 13.2196C2.75143 12.1617 2.13333 10.7269 2.13333 9.23078V7.1795C2.13333 6.90748 2.02095 6.6466 1.82091 6.45426C1.62088 6.26191 1.34956 6.15385 1.06667 6.15385C0.783769 6.15385 0.512458 6.26191 0.312419 6.45426C0.112381 6.6466 0 6.90748 0 7.1795L0 9.23078C0.00135638 11.1021 0.712117 12.9088 1.99918 14.3125C3.28624 15.7162 5.06132 16.6206 6.992 16.8564C6.92032 17.1005 6.79183 17.3256 6.61627 17.5149C6.44071 17.7041 6.22267 17.8525 5.97867 17.9487H5.33333C5.05044 17.9487 4.77913 18.0568 4.57909 18.2491C4.37905 18.4415 4.26667 18.7024 4.26667 18.9744C4.26667 19.2464 4.37905 19.5073 4.57909 19.6996C4.77913 19.892 5.05044 20 5.33333 20H10.6667C10.9496 20 11.2209 19.892 11.4209 19.6996C11.621 19.5073 11.7333 19.2464 11.7333 18.9744C11.7333 18.7024 11.621 18.4415 11.4209 18.2491C11.2209 18.0568 10.9496 17.9487 10.6667 17.9487H10.0213C9.77733 17.8525 9.55929 17.7041 9.38373 17.5149C9.20817 17.3256 9.07969 17.1005 9.008 16.8564C10.9387 16.6206 12.7138 15.7162 14.0008 14.3125C15.2879 12.9088 15.9986 11.1021 16 9.23078V7.1795C16 6.90748 15.8876 6.6466 15.6876 6.45426C15.4875 6.26191 15.2162 6.15385 14.9333 6.15385Z" fill="white"/>
<path d="M10.4 7.17949H12.2667V5.38462H10.6667C10.4545 5.38462 10.251 5.30357 10.101 5.15932C9.95095 5.01506 9.86666 4.8194 9.86666 4.61539C9.86666 4.41137 9.95095 4.21572 10.101 4.07146C10.251 3.9272 10.4545 3.84616 10.6667 3.84616H12.2667C12.2667 2.75809 11.8171 1.71458 11.017 0.945205C10.2168 0.175825 9.13159 -0.256409 8 -0.256409C6.86841 -0.256409 5.78316 0.175825 4.98301 0.945205C4.18285 1.71458 3.73333 2.75809 3.73333 3.84616H5.68533C5.92151 3.82323 6.1575 3.89135 6.34149 4.03557C6.52548 4.1798 6.64243 4.38833 6.66666 4.61539C6.64236 4.83953 6.52768 5.04559 6.34722 5.18939C6.16677 5.33318 5.9349 5.40327 5.70133 5.38462H3.73333V7.17949H5.6C5.81217 7.17949 6.01565 7.26053 6.16568 7.40479C6.31571 7.54905 6.4 7.74471 6.4 7.94872C6.4 8.15273 6.31571 8.34839 6.16568 8.49265C6.01565 8.63691 5.81217 8.71795 5.6 8.71795H3.73333V9.23077C3.73333 10.3188 4.18285 11.3623 4.98301 12.1317C5.78316 12.9011 6.86841 13.3333 8 13.3333C9.13159 13.3333 10.2168 12.9011 11.017 12.1317C11.8171 11.3623 12.2667 10.3188 12.2667 9.23077V8.71795H10.4C10.1878 8.71795 9.98434 8.63691 9.83431 8.49265C9.68428 8.34839 9.6 8.15273 9.6 7.94872C9.6 7.74471 9.68428 7.54905 9.83431 7.40479C9.98434 7.26053 10.1878 7.17949 10.4 7.17949Z" fill="white"/>
</g>
<defs>
<clipPath id="clip0">
<rect width="16" height="20" fill="white"/>
</clipPath>
</defs>
</svg>
