<?xml version="1.0" encoding="UTF-8"?><!DOCTYPE svg PUBLIC "-//W3C//DTD SVG 1.1//EN" "http://www.w3.org/Graphics/SVG/1.1/DTD/svg11.dtd"><svg xmlns="http://www.w3.org/2000/svg"><symbol id="accordian-indicator" viewBox="0 0 36.077501 36.080001"><path d="M34.827 18.04c0 9.272-7.517 16.79-16.788 16.79-9.273 0-16.789-7.518-16.789-16.79 0-9.273 7.516-16.79 16.789-16.79 9.271 0 16.788 7.517 16.788 16.79z" fill="none" stroke="#333" stroke-width="2.5" stroke-miterlimit="10"/><path d="M18.039 23.78l-9.406-9.404 1.391-1.393 9.406 9.407-1.391 1.39z" fill="#333"/><path d="M16.647 22.39l9.408-9.406 1.391 1.391-9.408 9.406-1.39-1.391z" fill="#333"/></symbol><symbol id="facebook" viewBox="0 0 33.57875 33.578749"><path d="M21.129 16.783H18.37v10.072H14.6V16.783h-2.521V13.32l2.521-.01-.011-2.039c0-2.827.769-4.558 4.111-4.558h2.778v3.472h-1.744c-1.291 0-1.363.491-1.363 1.394v1.731h3.125l-.367 3.473zM16.783 0C7.52 0 0 7.52 0 16.783c0 9.275 7.52 16.796 16.783 16.796 9.275 0 16.796-7.521 16.796-16.796C33.579 7.51 26.058 0 16.783 0" class="fill-current" fill="#333"/></symbol><symbol id="logo" viewBox="0 0 132.5 144.27999"><g fill="#333"><path d="M39.643 64.2c0 3.888-2.014 4.575-5.323 4.575H32.5v-8.75h1.687c3.621 0 5.456.865 5.456 4.175M23.75 55.025v31.25h8.75v-11.25h2.447c7.157 0 12.256-3.023 12.256-10.223 0-6.8-4.92-9.777-12.929-9.777H23.75zM60.798 65.984c2.864 0 4.295 2.19 4.295 7.467 0 5.144-1.431 7.425-4.295 7.425-2.86 0-4.293-2.191-4.293-7.469 0-5.142 1.433-7.423 4.293-7.423m0 20.08c7.244 0 11.629-5.01 11.629-12.613 0-8.006-4.385-12.656-11.63-12.656-7.243 0-11.627 5.01-11.627 12.612 0 8.005 4.43 12.657 11.628 12.657M76.25 52.119v27.148c0 4.337 2.401 6.797 6.518 6.797 1.696 0 3.21-.358 4.285-.805l-1.392-5.01c-.312.136-.443.223-.932.223-.85 0-.979-.491-.979-1.475v-27.64l-7.5.762zM100 78.774c0 1.386-1.257 2.237-2.867 2.237-1.743 0-2.33-.87-2.33-2.746 0-2.37 2.012-3.24 5.233-3.24H100v3.749zm-.636-7.5c-7.199 0-11.135 2.498-11.135 7.688 0 4.338 2.997 7.262 7.74 7.262 2.812 0 5.454-1.02 7.151-3.614 1.12 2.327 2.951 3.136 5.725 3.361l1.496-4.627c-1.115-.404-1.59-1.095-1.59-2.928v-9.214c0-5.501-2.97-8.407-9.86-8.407-2.68 0-5.957.626-8.953 1.744l1.605 4.652c2.37-.804 3.803-1.254 5.327-1.254 2.905 0 3.13.852 3.13 3.668v1.67h-.636z"/><path d="M128.567 22.525H92.5v-5.679L61.253 25.22 92.5 33.595v-3.57h31.25v78.659l-30.938 27.381L8.75 99.182V31.374L97.976 7.329 95.757 0 3.01 24.801C1.35 25.245 0 26.746 0 28.465v73.207c0 1.513.967 2.88 2.356 3.48l89.58 38.817c.484.21 1.015.311 1.525.311.89 0 1.775-.311 2.476-.913L131.1 113.31c.841-.72 1.4-1.774 1.4-2.88V25.22c0-2.095-1.837-2.695-3.933-2.695"/></g></symbol><symbol id="mail" viewBox="0 0 33.57875 33.578749"><path d="M6.612 22.655V11.734l9.763 6.564a.788.788 0 0 0 .83 0l9.672-6.504v10.861c0 .519-.42.938-.937.938H7.551a.937.937 0 0 1-.939-.938m19.78-12.491l-9.602 6.53-9.686-6.53c-.149-.1-.078-.331.101-.331H26.29c.177 0 .249.23.101.33M16.784 0C7.52 0 0 7.52 0 16.783c0 9.275 7.521 16.796 16.784 16.796 9.275 0 16.795-7.521 16.795-16.796C33.579 7.51 26.059 0 16.784 0" class="fill-current" fill="#333"/></symbol><symbol id="twitter" viewBox="0 0 33.57875 33.578749"><path d="M25.145 13.024l.01.532c0 5.461-4.16 11.763-11.764 11.763a11.62 11.62 0 0 1-6.332-1.865c.317.04.647.062.983.062a8.307 8.307 0 0 0 5.134-1.772 4.145 4.145 0 0 1-3.862-2.87 4.152 4.152 0 0 0 1.866-.071 4.134 4.134 0 0 1-3.311-4.048v-.053c.553.31 1.188.494 1.865.514a4.127 4.127 0 0 1-1.269-5.514c2.027 2.5 5.08 4.14 8.514 4.315a4.009 4.009 0 0 1-.103-.943 4.13 4.13 0 0 1 4.13-4.129c1.188 0 2.264.504 3.021 1.301a8.34 8.34 0 0 0 2.624-.995 4.115 4.115 0 0 1-1.824 2.285 8.328 8.328 0 0 0 2.377-.655 8.496 8.496 0 0 1-2.059 2.143M16.782 0C7.52 0 0 7.52 0 16.782 0 26.057 7.52 33.58 16.782 33.58c9.275 0 16.797-7.522 16.797-16.797C33.579 7.51 26.057 0 16.782 0" class="fill-current" fill="#333"/></symbol></svg>
