<?xml version="1.0" encoding="UTF-8"?><!DOCTYPE svg PUBLIC "-//W3C//DTD SVG 1.1//EN" "http://www.w3.org/Graphics/SVG/1.1/DTD/svg11.dtd"><svg xmlns="http://www.w3.org/2000/svg"><symbol id="accordian-indicator" viewBox="0 0 36.077501 36.080001"><path d="M34.827 18.04c0 9.272-7.517 16.79-16.788 16.79-9.274 0-16.79-7.518-16.79-16.79 0-9.273 7.516-16.79 16.79-16.79 9.27 0 16.787 7.517 16.787 16.79z" fill="none" stroke="#333" stroke-width="2.5" stroke-miterlimit="10"/><path d="M18.04 23.78l-9.407-9.404 1.39-1.393 9.407 9.407-1.39 1.39z" fill="#333"/><path d="M16.647 22.39l9.408-9.406 1.39 1.39-9.407 9.407-1.39-1.39z" fill="#333"/></symbol><symbol id="facebook" viewBox="0 0 33.57875 33.578749"><path d="M21.13 16.783h-2.76v10.072H14.6V16.783h-2.52V13.32l2.52-.01-.01-2.04c0-2.826.768-4.557 4.11-4.557h2.778v3.472h-1.744c-1.29 0-1.363.49-1.363 1.394v1.73h3.126l-.367 3.473zM16.782 0C7.52 0 0 7.52 0 16.783 0 26.058 7.52 33.58 16.783 33.58c9.275 0 16.796-7.522 16.796-16.797C33.58 7.51 26.057 0 16.782 0" class="fill-current" fill="#333"/></symbol><symbol id="logo" viewBox="0 0 132.5 144.27999"><g fill="#333"><path d="M39.643 64.2c0 3.888-2.014 4.575-5.323 4.575H32.5v-8.75h1.687c3.62 0 5.456.865 5.456 4.175M23.75 55.025v31.25h8.75v-11.25h2.447c7.157 0 12.256-3.023 12.256-10.223 0-6.8-4.92-9.777-12.93-9.777H23.75zM60.798 65.984c2.864 0 4.295 2.19 4.295 7.467 0 5.145-1.43 7.426-4.295 7.426-2.86 0-4.293-2.19-4.293-7.47 0-5.14 1.433-7.422 4.293-7.422m0 20.08c7.244 0 11.63-5.01 11.63-12.613 0-8.005-4.386-12.655-11.63-12.655-7.244 0-11.628 5.01-11.628 12.612 0 8.005 4.43 12.657 11.628 12.657M76.25 52.12v27.147c0 4.337 2.4 6.797 6.518 6.797 1.696 0 3.21-.358 4.285-.805l-1.392-5.01c-.31.135-.442.222-.93.222-.85 0-.98-.49-.98-1.475v-27.64l-7.5.762zM100 78.774c0 1.386-1.257 2.237-2.867 2.237-1.743 0-2.33-.87-2.33-2.745 0-2.37 2.012-3.24 5.233-3.24H100v3.75zm-.636-7.5c-7.2 0-11.135 2.498-11.135 7.688 0 4.338 2.996 7.262 7.74 7.262 2.81 0 5.453-1.02 7.15-3.614 1.12 2.327 2.95 3.136 5.725 3.36l1.496-4.626c-1.114-.404-1.59-1.095-1.59-2.928v-9.214c0-5.5-2.97-8.407-9.86-8.407-2.68 0-5.956.626-8.952 1.744l1.605 4.65c2.37-.803 3.803-1.253 5.327-1.253 2.905 0 3.13.852 3.13 3.668v1.67h-.636z"/><path d="M128.567 22.525H92.5v-5.68L61.253 25.22 92.5 33.595v-3.57h31.25v78.66l-30.938 27.38L8.75 99.182V31.374L97.976 7.33 95.756 0 3.01 24.8C1.35 25.246 0 26.747 0 28.466v73.207c0 1.513.967 2.88 2.356 3.48l89.58 38.817c.484.21 1.015.31 1.525.31.89 0 1.776-.31 2.477-.913L131.1 113.31c.84-.72 1.4-1.775 1.4-2.88V25.22c0-2.095-1.837-2.695-3.933-2.695"/></g></symbol><symbol id="mail" viewBox="0 0 33.57875 33.578749"><path d="M6.612 22.655v-10.92l9.763 6.563c.127.078.27.117.415.117.144 0 .287-.04.415-.117l9.672-6.504v10.86c0 .52-.42.94-.937.94H7.55c-.518 0-.938-.42-.938-.94m19.78-12.49l-9.602 6.53-9.686-6.53c-.15-.1-.078-.33.1-.33H26.29c.177 0 .25.23.1.33M16.785 0C7.52 0 0 7.52 0 16.783 0 26.058 7.52 33.58 16.784 33.58c9.275 0 16.795-7.522 16.795-16.797C33.58 7.51 26.06 0 16.783 0" class="fill-current" fill="#333"/></symbol><symbol id="twitter" viewBox="0 0 33.57875 33.578749"><path d="M25.145 13.024l.01.532c0 5.46-4.16 11.763-11.764 11.763-2.334 0-4.506-.686-6.33-1.866.316.04.646.062.982.062 1.94 0 3.72-.666 5.134-1.772-1.814-.033-3.33-1.232-3.862-2.87.255.052.512.073.78.073.377 0 .747-.052 1.086-.145-1.886-.38-3.31-2.048-3.31-4.047v-.053c.552.31 1.187.494 1.864.514-1.107-.736-1.834-2.01-1.834-3.432 0-.76.205-1.475.565-2.082 2.027 2.5 5.08 4.14 8.514 4.315-.074-.298-.104-.616-.104-.943 0-2.275 1.845-4.13 4.13-4.13 1.188 0 2.264.505 3.02 1.302.935-.184 1.824-.522 2.625-.995-.306.967-.963 1.775-1.823 2.286.84-.102 1.64-.327 2.377-.655-.553.832-1.26 1.56-2.06 2.144M16.783 0C7.52 0 0 7.52 0 16.782 0 26.057 7.52 33.58 16.782 33.58c9.275 0 16.797-7.523 16.797-16.798C33.58 7.51 26.056 0 16.78 0" class="fill-current" fill="#333"/></symbol></svg>